<svg xmlns="http://www.w3.org/2000/svg" width="720" height="380" viewBox="0 0 720 380" role="img" aria-labelledby="title description">
  <title id="title">Event promotion experience preview</title>
  <desc id="description">A polished registration page preview with a date, event promise, speaker, and registration action.</desc>
  <defs>
    <linearGradient id="canvas" x1="0" y1="0" x2="1" y2="1">
      <stop offset="0" stop-color="#f7fbff"/>
      <stop offset="1" stop-color="#fff5f1"/>
    </linearGradient>
    <linearGradient id="portrait" x1="0" y1="0" x2="1" y2="1">
      <stop offset="0" stop-color="#16395f"/>
      <stop offset="1" stop-color="#071428"/>
    </linearGradient>
    <filter id="shadow" x="-20%" y="-20%" width="140%" height="160%">
      <feDropShadow dx="0" dy="12" stdDeviation="16" flood-color="#071428" flood-opacity=".12"/>
    </filter>
  </defs>
  <rect width="720" height="380" fill="url(#canvas)"/>
  <rect x="0" y="0" width="720" height="52" fill="#fff"/>
  <path d="M0 51.5H720" stroke="#d7e7f2"/>
  <path d="M34 26c8-12 17-16 30-13-8 3-13 8-15 16 8-5 17-5 27 1-13 0-22 7-27 20-3-10-8-18-15-24Z" fill="#0077ff"/>
  <text x="86" y="32" fill="#102640" font-family="Arial, sans-serif" font-size="13" font-weight="700">Executive Exchange</text>
  <text x="620" y="32" fill="#52647c" font-family="Arial, sans-serif" font-size="10" font-weight="700">AGENDA</text>
  <rect x="34" y="82" width="112" height="34" rx="17" fill="#fff" stroke="#f1b8ab"/>
  <circle cx="53" cy="99" r="5" fill="#E85D45"/>
  <text x="66" y="103" fill="#913625" font-family="Arial, sans-serif" font-size="10" font-weight="700">SEPTEMBER 18</text>
  <text x="34" y="157" fill="#102640" font-family="Arial, sans-serif" font-size="33" font-weight="700">Turn the next</text>
  <text x="34" y="193" fill="#102640" font-family="Arial, sans-serif" font-size="33" font-weight="700">buyer signal into</text>
  <text x="34" y="229" fill="#102640" font-family="Arial, sans-serif" font-size="33" font-weight="700">a confident move.</text>
  <text x="34" y="261" fill="#52647c" font-family="Arial, sans-serif" font-size="12">A focused conversation for revenue leaders building</text>
  <text x="34" y="278" fill="#52647c" font-family="Arial, sans-serif" font-size="12">more useful, measurable buying experiences.</text>
  <rect x="34" y="307" width="127" height="42" rx="21" fill="#0077ff"/>
  <text x="65" y="333" fill="#fff" font-family="Arial, sans-serif" font-size="11" font-weight="700">Save my place</text>
  <g filter="url(#shadow)">
    <rect x="430" y="83" width="256" height="242" rx="18" fill="#fff"/>
    <rect x="446" y="99" width="224" height="112" rx="12" fill="url(#portrait)"/>
    <circle cx="558" cy="144" r="34" fill="#E85D45" opacity=".94"/>
    <path d="M532 181c8-22 21-34 39-34 19 0 33 12 42 34" fill="#f8c9be" opacity=".9"/>
    <circle cx="558" cy="135" r="19" fill="#f8c9be"/>
    <text x="446" y="236" fill="#E85D45" font-family="Arial, sans-serif" font-size="9" font-weight="700">LIVE VIRTUAL SESSION</text>
    <text x="446" y="259" fill="#102640" font-family="Arial, sans-serif" font-size="15" font-weight="700">What you will take away</text>
    <circle cx="450" cy="280" r="3" fill="#11a461"/>
    <text x="461" y="284" fill="#52647c" font-family="Arial, sans-serif" font-size="10">A sharper message for the buying group</text>
    <circle cx="450" cy="301" r="3" fill="#11a461"/>
    <text x="461" y="305" fill="#52647c" font-family="Arial, sans-serif" font-size="10">A practical path from interest to action</text>
  </g>
</svg>
