<svg xmlns="http://www.w3.org/2000/svg" viewBox="0 0 1200 800" role="img" aria-label="FIELD OPERATIONS product interface"><rect width="1200" height="800" rx="40" fill="#F3F7FC"/><rect x="54" y="48" width="1092" height="704" rx="26" fill="#fff" stroke="#040404" stroke-opacity=".15" stroke-width="3"/><rect x="54" y="48" width="210" height="704" rx="26" fill="#040404"/><rect x="92" y="98" width="118" height="18" rx="9" fill="#fff"/><rect x="92" y="162" width="92" height="12" rx="6" fill="#fff" opacity=".72"/><rect x="92" y="210" width="118" height="12" rx="6" fill="#fff" opacity=".48"/><rect x="92" y="258" width="104" height="12" rx="6" fill="#fff" opacity=".48"/><text x="316" y="116" font-family="Arial,sans-serif" font-size="34" font-weight="700" fill="#040404">FIELD OPERATIONS</text><text x="316" y="154" font-family="Arial,sans-serif" font-size="18" fill="#040404" opacity=".65">Operational workspace</text><rect x="316" y="204" width="248" height="172" rx="18" fill="#F3F7FC"/><rect x="590" y="204" width="248" height="172" rx="18" fill="#F3F7FC"/><rect x="864" y="204" width="230" height="172" rx="18" fill="#F3F7FC"/><circle cx="362" cy="250" r="18" fill="#0265DC"/><rect x="394" y="238" width="118" height="14" rx="7" fill="#040404" opacity=".7"/><rect x="344" y="310" width="172" height="18" rx="9" fill="#040404"/><circle cx="636" cy="250" r="18" fill="#0265DC"/><rect x="668" y="238" width="118" height="14" rx="7" fill="#040404" opacity=".7"/><rect x="618" y="310" width="172" height="18" rx="9" fill="#040404"/><circle cx="910" cy="250" r="18" fill="#0265DC"/><rect x="942" y="238" width="108" height="14" rx="7" fill="#040404" opacity=".7"/><rect x="892" y="310" width="154" height="18" rx="9" fill="#040404"/><rect x="316" y="420" width="778" height="268" rx="18" fill="#fff" stroke="#040404" stroke-opacity=".12" stroke-width="3"/><rect x="354" y="466" width="304" height="18" rx="9" fill="#040404"/><rect x="354" y="512" width="682" height="14" rx="7" fill="#040404" opacity=".18"/><rect x="354" y="554" width="598" height="14" rx="7" fill="#040404" opacity=".18"/><rect x="354" y="596" width="636" height="14" rx="7" fill="#040404" opacity=".18"/><rect x="354" y="642" width="168" height="28" rx="14" fill="#0265DC"/></svg>